<?xml version="1.0" standalone="no"?>
<!DOCTYPE svg PUBLIC "-//W3C//DTD SVG 20010904//EN"
 "http://www.w3.org/TR/2001/REC-SVG-20010904/DTD/svg10.dtd">
<svg version="1.0" xmlns="http://www.w3.org/2000/svg"
 width="500.000000pt" height="500.000000pt" viewBox="0 0 500.000000 500.000000"
 preserveAspectRatio="xMidYMid meet">
<metadata>
Created by potrace 1.14, written by Peter Selinger 2001-2017
</metadata>
<g transform="translate(0.000000,500.000000) scale(0.100000,-0.100000)"
fill="#000000" stroke="none">
<path d="M1775 4699 c-49 -19 -72 -40 -102 -95 -22 -40 -22 -42 -23 -573 0
-424 -3 -539 -14 -565 -23 -55 -73 -99 -129 -113 -12 -3 -258 -6 -547 -7 -417
-2 -533 -5 -562 -16 -20 -7 -35 -17 -32 -21 2 -4 -4 -10 -13 -14 -20 -6 -54
-49 -57 -70 -1 -8 -5 -18 -9 -22 -10 -9 -9 -1398 1 -1407 4 -4 7 -11 7 -14 2
-37 88 -110 136 -116 19 -3 34 -5 34 -6 0 -1 232 -1 515 -2 478 0 518 -1 555
-18 55 -26 68 -38 93 -90 21 -44 21 -56 24 -585 l3 -540 24 -38 c13 -21 42
-50 64 -65 l41 -27 700 -2 701 -3 45 24 c25 13 59 42 75 66 l30 42 0 511 c0
461 -2 516 -17 547 -21 45 -65 84 -112 101 -20 7 -36 16 -36 20 0 4 -17 13
-37 20 -21 6 -43 15 -49 20 -6 5 -19 10 -30 12 -10 2 -26 7 -34 10 -100 38
-199 50 -420 53 -118 1 -215 3 -215 4 0 1 -11 3 -25 5 -48 5 -87 15 -135 35
-69 28 -122 54 -137 68 -10 8 -18 11 -18 7 0 -4 -8 2 -19 13 -10 12 -22 22
-27 22 -10 0 -119 106 -149 144 -11 15 -26 33 -33 41 -6 7 -12 17 -12 20 0 4
-8 19 -19 33 -22 32 -68 138 -76 178 -8 39 -13 59 -15 59 -6 0 -11 53 -13 135
-3 99 3 147 32 255 14 52 66 161 97 202 13 17 24 34 24 37 0 13 110 121 163
161 54 41 166 103 198 109 8 2 21 6 29 9 44 17 93 28 122 29 18 1 36 6 40 12
5 8 8 7 8 -2 0 -9 5 -10 18 -4 27 13 187 1 238 -18 13 -5 24 -8 24 -5 0 2 15
-2 33 -10 17 -7 35 -13 40 -14 16 -1 129 -61 174 -92 75 -52 186 -167 210
-219 4 -8 15 -24 25 -34 9 -10 15 -23 12 -28 -3 -4 0 -8 5 -8 6 0 10 -3 9 -7
0 -5 6 -24 14 -43 27 -62 31 -75 33 -92 2 -10 3 -19 5 -20 12 -16 24 -159 34
-410 3 -80 8 -152 11 -160 2 -7 6 -31 9 -53 2 -22 16 -74 31 -115 15 -41 27
-81 27 -87 1 -7 4 -13 8 -13 3 0 12 -16 20 -35 8 -19 18 -35 22 -35 5 0 7 -4
4 -9 -11 -18 80 -99 125 -112 61 -16 1006 -15 1027 1 1 2 5 3 10 4 21 4 67 44
92 82 l30 42 0 700 c0 767 2 733 -59 790 -59 56 -52 55 -631 57 -482 1 -538 3
-567 18 -56 30 -86 67 -108 132 -3 11 -6 256 -6 544 0 499 -1 526 -20 562 -21
42 -67 89 -86 89 -7 0 -13 4 -13 8 0 5 -6 9 -12 10 -7 1 -323 3 -702 5 -610 2
-694 0 -731 -14z"/>
<path d="M2440 3241 c0 -4 -12 -6 -27 -5 -22 0 -60 -7 -153 -31 -20 -5 -115
-50 -164 -78 -45 -25 -159 -134 -203 -192 -33 -44 -93 -165 -109 -220 -24 -84
-37 -212 -22 -221 5 -4 5 -10 -1 -17 -12 -15 -3 -86 21 -172 6 -22 12 -42 13
-45 1 -3 9 -22 18 -44 9 -21 17 -41 17 -44 0 -9 83 -127 92 -130 4 -2 8 -9 9
-15 1 -15 122 -122 164 -145 17 -9 32 -20 35 -23 7 -9 135 -65 135 -59 0 1 12
-3 27 -9 49 -19 120 -24 318 -25 107 -1 201 -5 209 -10 10 -7 12 -6 6 4 -6 10
-4 11 6 4 8 -4 19 -9 24 -10 80 -13 128 -25 147 -35 10 -5 23 -7 28 -4 6 3 10
2 10 -4 0 -6 7 -8 15 -5 8 4 15 1 15 -5 0 -6 7 -11 16 -11 15 0 185 -79 194
-91 3 -3 20 -14 38 -23 17 -9 32 -21 32 -26 0 -5 10 -12 22 -16 20 -6 169
-148 213 -204 64 -80 157 -274 169 -353 1 -7 5 -18 9 -24 5 -7 6 -13 3 -13 -3
0 1 -18 9 -39 7 -22 11 -42 8 -45 -3 -3 -1 -11 5 -18 6 -7 10 -16 10 -21 1
-16 15 -74 30 -122 9 -27 15 -53 14 -57 -1 -5 2 -8 8 -8 6 0 9 -3 8 -7 -9 -34
90 -165 163 -218 39 -28 155 -69 175 -61 6 2 15 2 18 -1 8 -8 63 -7 101 1 60
14 135 40 135 48 0 4 6 8 13 8 34 1 166 157 170 201 1 10 4 19 7 19 4 0 7 6 8
13 0 6 3 28 6 47 8 52 8 111 1 145 -8 40 -28 99 -36 105 -3 3 -13 19 -22 35
-28 53 -109 126 -170 152 -42 19 -119 45 -142 49 -217 38 -409 110 -547 205
-79 53 -92 64 -167 140 -84 84 -103 106 -126 147 -11 17 -22 32 -25 32 -3 0
-21 30 -40 68 -19 37 -39 70 -45 74 -5 4 -6 8 -1 8 5 0 4 6 -1 13 -16 20 -60
151 -67 202 -2 11 -4 20 -5 20 -3 0 -8 55 -15 180 -4 61 -8 122 -10 138 -2 15
1 30 5 33 5 3 5 13 -1 23 -6 12 -5 22 1 28 8 8 7 13 0 17 -6 4 -11 31 -11 60
0 29 -3 56 -7 59 -6 7 -12 50 -13 95 0 12 -5 22 -10 22 -6 0 -9 3 -8 8 4 13
-36 107 -59 138 -13 17 -23 36 -23 41 0 14 -164 183 -177 183 -5 0 -18 8 -29
18 -17 15 -108 64 -126 68 -5 1 -11 3 -15 4 -5 1 -11 2 -15 1 -5 0 -8 3 -8 8
0 5 -12 11 -27 14 -16 3 -41 8 -58 12 -16 3 -43 8 -60 10 -16 3 -42 6 -57 8
-16 2 -28 0 -28 -5 0 -5 -5 -6 -11 -3 -14 10 -59 14 -59 6z m170 -105 c0 -5 3
-7 6 -4 3 4 20 2 37 -3 18 -6 40 -12 50 -14 27 -6 141 -66 149 -79 4 -6 8 -8
8 -4 0 8 30 -15 79 -62 70 -66 137 -169 166 -255 22 -63 43 -175 33 -175 -5 0
-4 -9 2 -20 8 -14 8 -26 0 -40 -8 -14 -8 -20 0 -20 6 0 9 -4 6 -9 -3 -5 -8
-26 -12 -46 -7 -48 -20 -107 -24 -112 -2 -2 -3 -6 -4 -10 -1 -5 -10 -25 -19
-47 -9 -21 -17 -40 -17 -43 0 -17 -83 -128 -129 -170 -45 -43 -178 -123 -204
-123 -3 0 -18 -5 -34 -11 -32 -13 -73 -21 -120 -23 -18 0 -33 -4 -33 -8 0 -10
-54 -4 -62 7 -5 6 -8 6 -8 -2 0 -6 -8 -10 -17 -8 -10 2 -18 4 -18 5 0 1 -18 3
-40 5 -22 2 -47 6 -55 8 -61 16 -82 23 -132 47 -79 39 -114 64 -183 136 -82
85 -82 85 -125 177 -46 101 -64 196 -57 308 5 83 7 94 26 156 5 17 7 34 3 37
-3 3 0 6 6 6 7 0 11 3 10 8 -1 4 6 24 15 46 9 21 17 42 17 47 0 5 3 9 8 9 4 0
16 16 27 36 31 58 139 150 222 189 41 19 82 37 91 39 9 2 24 6 32 9 8 3 30 8
48 11 19 2 36 6 38 9 9 8 214 2 214 -7z"/>
<path d="M2410 3029 c0 -3 -10 -7 -22 -7 -32 0 -106 -27 -161 -58 -47 -26
-152 -122 -174 -159 -33 -54 -63 -115 -57 -115 4 0 2 -6 -4 -12 -13 -17 -35
-135 -27 -148 3 -6 2 -10 -4 -10 -7 0 -7 -8 1 -25 7 -16 19 -25 34 -25 30 0
35 15 46 148 1 6 4 12 8 12 4 0 7 6 7 13 1 17 7 41 13 47 3 3 14 23 25 44 29
57 128 151 188 180 61 28 126 47 182 51 22 2 45 4 50 4 15 1 17 49 2 58 -15
10 -107 12 -107 2z"/>
</g>
</svg>
